<svg xmlns="http://www.w3.org/2000/svg" viewBox="0 0 2048 2048" fill="none">
  <defs>
    <linearGradient id="filament" x1="502" y1="296" x2="1540" y2="1744" gradientUnits="userSpaceOnUse">
      <stop offset="0" stop-color="#6FD5FF"/>
      <stop offset="0.52" stop-color="#F3FCFF"/>
      <stop offset="1" stop-color="#7ABEFF"/>
    </linearGradient>
    <linearGradient id="accent" x1="744" y1="350" x2="1314" y2="1648" gradientUnits="userSpaceOnUse">
      <stop offset="0" stop-color="#F0B85A"/>
      <stop offset="1" stop-color="#FFF2C7"/>
    </linearGradient>
    <filter id="glow" x="318" y="156" width="1408" height="1720" color-interpolation-filters="sRGB">
      <feGaussianBlur stdDeviation="10" result="blur"/>
      <feMerge>
        <feMergeNode in="blur"/>
        <feMergeNode in="SourceGraphic"/>
      </feMerge>
    </filter>
  </defs>
  <g filter="url(#glow)" stroke-linecap="round" stroke-linejoin="round">
    <path d="M1020 370C928 384 839 437 762 528C682 624 647 729 662 846C678 969 735 1073 835 1155C937 1238 998 1336 1018 1447C1039 1551 1027 1633 981 1694" stroke="url(#filament)" stroke-width="22"/>
    <path d="M1020 370C1115 381 1205 433 1284 528C1362 619 1401 727 1396 850C1390 982 1335 1090 1231 1173C1127 1258 1066 1350 1044 1450C1025 1543 1032 1624 1070 1687" stroke="url(#filament)" stroke-width="22"/>
    <path d="M908 592C934 508 972 436 1020 370C1070 439 1108 511 1132 588" stroke="url(#accent)" stroke-width="18"/>
    <path d="M686 812C778 764 863 766 944 814C1016 857 1074 929 1117 1031" stroke="url(#filament)" stroke-width="20"/>
    <path d="M1363 815C1278 763 1194 764 1109 815C1031 862 972 937 930 1044" stroke="url(#filament)" stroke-width="20"/>
    <path d="M820 1103C891 1062 961 1045 1027 1050C1090 1056 1158 1078 1235 1120" stroke="url(#filament)" stroke-width="18"/>
    <path d="M814 1245C876 1324 945 1391 1021 1446C1099 1390 1170 1322 1233 1242" stroke="url(#accent)" stroke-width="18"/>
    <path d="M775 1270C731 1388 642 1462 508 1490C533 1363 623 1280 775 1270Z" stroke="url(#filament)" stroke-width="18"/>
    <path d="M1272 1270C1318 1386 1406 1459 1537 1487C1518 1360 1430 1280 1272 1270Z" stroke="url(#filament)" stroke-width="18"/>
    <path d="M981 1694C1026 1751 1061 1750 1070 1687" stroke="url(#accent)" stroke-width="16"/>
    <circle cx="1020" cy="370" r="18" fill="#F0B85A"/>
    <circle cx="662" cy="846" r="18" fill="#F6FCFF"/>
    <circle cx="1396" cy="850" r="18" fill="#F6FCFF"/>
    <circle cx="944" cy="814" r="18" fill="#F6FCFF"/>
    <circle cx="1109" cy="815" r="18" fill="#F6FCFF"/>
    <circle cx="1117" cy="1031" r="18" fill="#F0B85A"/>
    <circle cx="930" cy="1044" r="18" fill="#F0B85A"/>
    <circle cx="1021" cy="1446" r="18" fill="#F6FCFF"/>
    <circle cx="508" cy="1490" r="18" fill="#F6FCFF"/>
    <circle cx="1537" cy="1487" r="18" fill="#F6FCFF"/>
    <circle cx="981" cy="1694" r="18" fill="#F6FCFF"/>
    <circle cx="1070" cy="1687" r="18" fill="#F0B85A"/>
  </g>
</svg>
