<svg xmlns="http://www.w3.org/2000/svg" viewBox="0 0 2048 2048" fill="none">
  <defs>
    <linearGradient id="filament" x1="504" y1="314" x2="1548" y2="1728" gradientUnits="userSpaceOnUse">
      <stop offset="0" stop-color="#6FD5FF"/>
      <stop offset="0.52" stop-color="#F3FCFF"/>
      <stop offset="1" stop-color="#79BFFF"/>
    </linearGradient>
    <linearGradient id="accent" x1="704" y1="408" x2="1362" y2="1610" gradientUnits="userSpaceOnUse">
      <stop offset="0" stop-color="#F0B85A"/>
      <stop offset="1" stop-color="#FFF2C5"/>
    </linearGradient>
    <filter id="glow" x="322" y="208" width="1408" height="1640" color-interpolation-filters="sRGB">
      <feGaussianBlur stdDeviation="10" result="blur"/>
      <feMerge>
        <feMergeNode in="blur"/>
        <feMergeNode in="SourceGraphic"/>
      </feMerge>
    </filter>
  </defs>
  <g filter="url(#glow)" stroke-linecap="round" stroke-linejoin="round">
    <path d="M1022 443C932 455 850 513 800 601C752 688 745 789 782 878C820 967 889 1041 985 1098C1078 1154 1139 1239 1151 1348C1160 1438 1138 1514 1087 1574" stroke="url(#filament)" stroke-width="22"/>
    <path d="M1022 443C1114 448 1204 498 1265 585C1327 672 1346 781 1318 889C1292 987 1231 1074 1134 1143" stroke="url(#filament)" stroke-width="22"/>
    <path d="M666 641C774 611 873 615 963 653C1048 689 1117 751 1169 839" stroke="url(#filament)" stroke-width="18"/>
    <path d="M1382 642C1266 611 1167 617 1084 655C1008 690 943 751 889 835" stroke="url(#filament)" stroke-width="18"/>
    <path d="M789 504L876 1326" stroke="url(#filament)" stroke-width="18"/>
    <path d="M1254 511L1168 1326" stroke="url(#filament)" stroke-width="18"/>
    <path d="M876 810C963 876 1039 922 1113 952C1186 981 1269 998 1360 1002" stroke="url(#filament)" stroke-width="20"/>
    <path d="M1168 811C1080 876 1006 920 930 951C852 983 766 1000 680 1004" stroke="url(#filament)" stroke-width="20"/>
    <path d="M842 1137C905 1197 969 1238 1032 1260C1093 1280 1170 1294 1262 1296" stroke="url(#accent)" stroke-width="16"/>
    <path d="M1202 1133C1136 1197 1074 1238 1008 1261C945 1282 873 1295 794 1298" stroke="url(#accent)" stroke-width="16"/>
    <path d="M1018 1262V1576" stroke="url(#filament)" stroke-width="18"/>
    <path d="M1018 1262L938 1177" stroke="url(#accent)" stroke-width="14"/>
    <path d="M1018 1262L1103 1177" stroke="url(#accent)" stroke-width="14"/>
    <circle cx="1022" cy="443" r="18" fill="#F6FCFF"/>
    <circle cx="666" cy="641" r="18" fill="#F6FCFF"/>
    <circle cx="1382" cy="642" r="18" fill="#F6FCFF"/>
    <circle cx="876" cy="810" r="18" fill="#F0B85A"/>
    <circle cx="1168" cy="811" r="18" fill="#F0B85A"/>
    <circle cx="1360" cy="1002" r="17" fill="#F6FCFF"/>
    <circle cx="680" cy="1004" r="17" fill="#F6FCFF"/>
    <circle cx="1018" cy="1262" r="18" fill="#F6FCFF"/>
    <circle cx="876" cy="1326" r="18" fill="#F6FCFF"/>
    <circle cx="1168" cy="1326" r="18" fill="#F6FCFF"/>
    <circle cx="1018" cy="1576" r="18" fill="#F0B85A"/>
  </g>
</svg>
