<svg xmlns="http://www.w3.org/2000/svg" viewBox="0 0 2048 2048" fill="none">
  <defs>
    <linearGradient id="filament" x1="646" y1="318" x2="1412" y2="1718" gradientUnits="userSpaceOnUse">
      <stop offset="0" stop-color="#99E0FF"/>
      <stop offset="0.52" stop-color="#FAFDFF"/>
      <stop offset="1" stop-color="#84C2FF"/>
    </linearGradient>
    <linearGradient id="accent" x1="846" y1="404" x2="1242" y2="1532" gradientUnits="userSpaceOnUse">
      <stop offset="0" stop-color="#EB6A76"/>
      <stop offset="0.72" stop-color="#FFF5E0"/>
      <stop offset="1" stop-color="#F0B85A"/>
    </linearGradient>
    <radialGradient id="wash" cx="0" cy="0" r="1" gradientUnits="userSpaceOnUse" gradientTransform="translate(1028 1096) rotate(90) scale(700 400)">
      <stop offset="0" stop-color="#E66E79" stop-opacity="0.12"/>
      <stop offset="1" stop-color="#E66E79" stop-opacity="0"/>
    </radialGradient>
    <filter id="glow" x="560" y="250" width="940" height="1500" filterUnits="userSpaceOnUse" color-interpolation-filters="sRGB">
      <feGaussianBlur stdDeviation="10" result="blur"/>
      <feMerge>
        <feMergeNode in="blur"/>
        <feMergeNode in="SourceGraphic"/>
      </feMerge>
    </filter>
  </defs>
  <g filter="url(#glow)" stroke-linecap="round" stroke-linejoin="round">
    <path d="M916 748C966 718 1006 704 1038 704C1070 704 1112 718 1162 748C1214 814 1242 910 1242 1038C1242 1218 1172 1388 1032 1548C892 1390 824 1220 824 1038C824 912 854 816 916 748Z" fill="url(#wash)"/>
    <circle cx="1034" cy="430" r="98" stroke="url(#filament)" stroke-width="22"/>
    <path d="M912 750C964 718 1006 704 1038 704C1070 704 1114 718 1162 750" stroke="url(#filament)" stroke-width="26"/>
    <path d="M918 758L886 1010L940 1532" stroke="url(#filament)" stroke-width="20"/>
    <path d="M1158 758L1190 1010L1138 1532" stroke="url(#filament)" stroke-width="20"/>
    <path d="M1038 706V1546" stroke="url(#filament)" stroke-width="18"/>
    <rect x="776" y="852" width="176" height="320" rx="16" stroke="url(#filament)" stroke-width="20"/>
    <path d="M816 928H912" stroke="url(#accent)" stroke-width="14"/>
    <path d="M816 1002H912" stroke="url(#accent)" stroke-width="14"/>
    <path d="M816 1076H892" stroke="url(#accent)" stroke-width="14"/>
    <path d="M1126 840L1186 640" stroke="url(#filament)" stroke-width="18"/>
    <path d="M1186 640L1246 726" stroke="url(#accent)" stroke-width="16"/>
    <path d="M1186 640L1128 578" stroke="url(#accent)" stroke-width="16"/>
    <path d="M1238 726C1290 720 1322 744 1336 798" stroke="url(#filament)" stroke-width="16"/>
    <path d="M866 1548C938 1464 974 1368 974 1262" stroke="url(#filament)" stroke-width="16"/>
    <path d="M1198 1548C1126 1464 1092 1368 1092 1262" stroke="url(#filament)" stroke-width="16"/>
    <path d="M948 520C982 488 1010 474 1034 474C1060 474 1086 488 1120 520" stroke="url(#accent)" stroke-width="14"/>
    <circle cx="1034" cy="430" r="16" fill="#F6FCFF"/>
    <circle cx="776" cy="852" r="16" fill="#F6FCFF"/>
    <circle cx="952" cy="1172" r="16" fill="#F6FCFF"/>
    <circle cx="1186" cy="640" r="16" fill="#F0B85A"/>
    <circle cx="1336" cy="798" r="14" fill="#F6FCFF"/>
    <circle cx="866" cy="1548" r="14" fill="#F6FCFF"/>
    <circle cx="1198" cy="1548" r="14" fill="#F6FCFF"/>
  </g>
</svg>
